<svg width="32" height="32" viewBox="0 0 32 32" fill="none" xmlns="http://www.w3.org/2000/svg">
    <g clip-path="url(#xmq0s4c22a)">
        <path d="m26.743 22.4.133.133a2.55 2.55 0 0 0 2.359.695 2.516 2.516 0 0 0 1.836-1.57 15.9 15.9 0 0 0 1.036-6.058A16.207 16.207 0 0 0 16.667.01 16 16 0 0 0 .11 16a16.019 16.019 0 0 0 16 16c.45 0 .893-.03 1.333-.067a1.333 1.333 0 0 0 1.221-1.333l-.042-4.784a4.756 4.756 0 0 1 8.12-3.416zM22.82 10.733a2 2 0 1 1 1.026 3.867 2 2 0 0 1-1.026-3.867zM10.513 22.6a2 2 0 1 1-1.026-3.864 2 2 0 0 1 1.026 3.864zm0-8a2 2 0 1 1-1.026-3.864 2 2 0 0 1 1.026 3.864zm6.667-4a1.999 1.999 0 1 1-1.026-3.864A1.999 1.999 0 0 1 17.18 10.6z" fill="#FF782D"/>
    </g>
    <defs>
        <clipPath id="xmq0s4c22a">
            <path fill="#fff" d="M0 0h32v32H0z"/>
        </clipPath>
    </defs>
</svg>
