<svg width="32" height="32" viewBox="0 0 32 32" fill="none" xmlns="http://www.w3.org/2000/svg">
    <g clip-path="url(#dlhjnxhbia)" fill="#FF782D">
        <path d="M31.927 9.482H0v20.023c.047.168.087.34.142.506a2.809 2.809 0 0 0 2.675 1.924c1.809.008 3.618.003 5.426.003h20.739c1.418-.001 2.516-.803 2.855-2.095.062-.239.096-.492.096-.738.005-6.466.005-12.932.005-19.397 0-.061-.005-.123-.01-.226zM11.08 24.104c-.35.434-.91.462-1.41.063a3117.748 3117.748 0 0 1-4.476-3.583c-.612-.49-.613-1.128-.002-1.618a2286.96 2286.96 0 0 1 4.499-3.602c.48-.383 1.041-.349 1.386.076.354.436.266.998-.225 1.393-1.118.898-2.239 1.79-3.358 2.685-.095.077-.188.154-.313.258l1.478 1.184c.73.584 1.461 1.166 2.19 1.752.493.397.583.956.231 1.392zm8.502-10.392c-1.835 4.292-3.675 8.583-5.514 12.873-.201.468-.552.703-.98.67-.402-.032-.771-.317-.823-.727-.03-.242.022-.52.12-.747 1.53-3.6 3.074-7.193 4.615-10.788.302-.706.6-1.414.91-2.116.194-.441.633-.665 1.063-.567.43.097.74.487.735 1.01-.025.08-.06.242-.125.392zm7.205 6.84a958.428 958.428 0 0 1-4.575 3.657c-.46.366-1.029.31-1.36-.111-.335-.425-.258-.983.197-1.35 1.133-.911 2.27-1.818 3.405-2.726l.303-.251-2.167-1.737c-.51-.409-1.024-.815-1.532-1.226-.467-.38-.545-.947-.194-1.373.341-.414.898-.455 1.363-.086 1.52 1.21 3.036 2.422 4.55 3.639.565.453.57 1.114.01 1.564zM31.937 3.05C31.933 1.33 30.732.126 29.012.126 20.322.124 11.633.124 2.942.125 1.45.125.397.963.052 2.413c-.011.05-.034.097-.052.145V7.61h31.922c.006-.12.015-.22.015-.32 0-1.412.003-2.827 0-4.24zm-27.2 2.688a.945.945 0 0 1-.931-.931.945.945 0 0 1 .954-.939c.506.011.922.441.915.946a.945.945 0 0 1-.938.923zm3.735 0a.945.945 0 0 1-.923-.939.944.944 0 0 1 .93-.93.944.944 0 0 1 .939.923.944.944 0 0 1-.946.946zm3.749 0a.944.944 0 0 1-.93-.932.944.944 0 0 1 .956-.938c.505.012.92.442.914.947a.946.946 0 0 1-.94.922zm14.847 0c-.892.002-1.785.001-2.678.001h-2.678c-.633-.002-1.059-.374-1.064-.928-.005-.554.423-.943 1.048-.943h5.386c.628 0 1.054.386 1.049.942-.004.556-.428.928-1.063.928z"/>
    </g>
    <defs>
        <clipPath id="dlhjnxhbia">
            <path fill="#fff" d="M0 0h32v32H0z"/>
        </clipPath>
    </defs>
</svg>
