<svg width="32" height="32" viewBox="0 0 32 32" fill="none" xmlns="http://www.w3.org/2000/svg">
    <g clip-path="url(#a8x2cx7b5a)" fill="#FF782D">
        <path d="M24.097 23.085c-.394-4.547-4.555-7.91-9.105-7.357-4.379.534-7.584 4.451-7.13 8.849.36 3.469 2.281 5.8 5.552 6.992.597.219 1.247.291 1.873.431h1.372c.152-.026.303-.055.456-.078a8.169 8.169 0 0 0 6.982-8.837zm-6.949 5.905c-.075.032-.151.063-.24.098v1.394h-1.863v-1.38c-1.516-.724-2.28-1.77-2.203-3.036h1.806c.023.079.047.145.061.213.15.707.72 1.126 1.43 1.05.632-.068 1.135-.646 1.123-1.288a1.277 1.277 0 0 0-1.251-1.266c-.943-.027-1.744-.35-2.378-1.052a3.134 3.134 0 0 1 1.114-5.008c.23-.098.311-.208.296-.453-.023-.35-.006-.704-.006-1.08h1.871c0 .388.014.76-.005 1.13-.01.21.062.3.256.385 1.18.51 1.833 1.417 1.961 2.698.006.06 0 .12 0 .202h-1.83c-.02-.078-.043-.155-.06-.235a1.28 1.28 0 0 0-1.423-1.024 1.3 1.3 0 0 0-1.122 1.322c.034.68.557 1.2 1.247 1.236 1.587.081 2.752.986 3.103 2.408.377 1.53-.414 3.077-1.887 3.686zM8.373 16.995a.88.88 0 0 1-.179.498c-.715.905-1.286 1.886-1.67 2.975-.05.14-.086.257-.287.256-2.079-.01-4.158-.011-6.237-.016v-1.871h3.608V12.48h4.773v.336c0 1.393.006 2.786-.008 4.18zM31.927 18.848v1.855c-.102.005-.202.016-.301.016-1.933.001-3.867-.004-5.8.007-.235 0-.344-.066-.423-.292-.372-1.08-.945-2.05-1.655-2.944a.823.823 0 0 1-.175-.47c-.01-5.548-.008-11.097-.008-16.647V.07h4.763v18.778h3.599zM21.667 4.204v11.279c-.751-.357-1.49-.776-2.277-1.063-.784-.286-1.617-.438-2.463-.657V4.204h4.74zM15.012 8.35v5.413c-.831.217-1.671.373-2.464.66-.78.285-1.514.702-2.274 1.064V8.349h4.739z"/>
    </g>
    <defs>
        <clipPath id="a8x2cx7b5a">
            <path fill="#fff" d="M0 0h32v32H0z"/>
        </clipPath>
    </defs>
</svg>
