<svg width="32" height="32" viewBox="0 0 32 32" fill="none" xmlns="http://www.w3.org/2000/svg">
    <g clip-path="url(#a3zsqu3vpa)" fill="#FF782D">
        <path d="M3.424 15.275C1.02 13.285.942 10.363 1.916 8.476c1.066-2.07 3.28-3.24 5.634-2.922 1.996.27 4.084 1.75 4.618 4.51.487-3.572 2.4-5.77 6.105-5.994 2.6-.157 4.91 1.473 5.865 3.858.924 2.306.447 5.253-1.98 7.212.072.04.135.08.2.11 1.422.663 2.199 1.78 2.218 3.345.032 2.645.03 5.29.003 7.936-.022 2.138-1.604 3.676-3.736 3.678-5.256.005-10.51.005-15.767 0-2.15-.002-3.734-1.551-3.75-3.699-.02-2.634-.02-5.268.001-7.902.012-1.419.665-2.493 1.897-3.208.066-.038.13-.08.2-.125zm14.992-2.153a2.908 2.908 0 0 0 2.897-2.904 2.918 2.918 0 0 0-2.94-2.901c-1.589.013-2.898 1.342-2.88 2.926a2.904 2.904 0 0 0 2.923 2.879zm-9.468-2.159a2.177 2.177 0 0 0-2.166-2.197c-1.193-.006-2.19.991-2.189 2.185a2.176 2.176 0 0 0 2.16 2.17 2.158 2.158 0 0 0 2.195-2.158zM7.153 25.118c-.454 0-.908-.007-1.362.002-.505.009-.815.285-.821.717-.007.447.307.74.828.743.897.007 1.793.007 2.69 0 .498-.004.82-.295.83-.717.009-.432-.326-.735-.838-.743-.442-.008-.885-.002-1.327-.002zm3.35-10.188h3.903c-1.231-1.076-1.905-2.39-2.165-3.93-.043 1.532-.628 2.817-1.738 3.93zM33.306 22.579c0 1.42.009 2.838-.002 4.258-.011 1.413-1.034 2.4-2.386 2.274-.337-.031-.685-.169-.984-.336-1.235-.695-2.451-1.424-3.679-2.131-.17-.097-.226-.208-.226-.401.007-2.441.007-4.882 0-7.323 0-.192.054-.305.224-.402 1.229-.707 2.447-1.43 3.677-2.137 1.604-.922 3.356.086 3.374 1.943.013 1.417.002 2.836.002 4.255z"/>
    </g>
    <defs>
        <clipPath id="a3zsqu3vpa">
            <path fill="#fff" d="M0 0h32v32H0z"/>
        </clipPath>
    </defs>
</svg>
