<svg width="32" height="32" viewBox="0 0 32 32" fill="none" xmlns="http://www.w3.org/2000/svg">
    <g clip-path="url(#2gh2wwjt3a)">
        <path d="M31.924 21.344c-.157 1.293-1.059 2.291-2.326 2.574-1.728.387-3.456-.929-3.527-2.7-.01-.238-.09-.336-.305-.418-1.543-.582-3.08-1.18-4.648-1.784a6.143 6.143 0 0 1-1.981 2.046c.03.09.051.168.083.242.642 1.52 1.287 3.039 1.926 4.56.069.163.134.263.35.265 1.525.021 2.77 1.144 2.902 2.596.143 1.577-.822 2.89-2.365 3.218-.047.011-.092.038-.138.057h-.873c-.056-.022-.111-.05-.169-.063a2.96 2.96 0 0 1-2.276-3.37c.108-.686.447-1.242.949-1.717-.691-1.633-1.375-3.258-2.073-4.878-.03-.067-.199-.126-.288-.11-.913.17-1.83.191-2.713-.095-.684-.221-1.334-.544-2.002-.822l-3.375 3.377.113.191c1.569 2.601.394 6.054-2.444 7.149-.401.155-.836.227-1.255.338H4.43c-.059-.018-.117-.043-.176-.053C2.135 31.57.777 30.343.16 28.29c-.065-.215-.108-.438-.16-.657v-1.122c.107-.411.177-.835.327-1.23 1.086-2.867 4.569-4.05 7.188-2.452.062.038.125.073.165.096l3.443-3.44c-.66-.954-1.05-2.03-1.094-3.224a5.948 5.948 0 0 1 .857-3.318l-2.614-2.221c-2.106 1.402-4.32.591-5.386-.72a3.933 3.933 0 0 1 .088-5.072c1.288-1.463 3.401-1.788 5.038-.78 1.47.903 2.478 2.96 1.473 5.133.428.364.86.735 1.294 1.103l1.302 1.106c2.39-1.778 4.833-1.881 7.387-.308.052-.047.129-.112.2-.182 1.58-1.58 3.158-3.163 4.745-4.737.16-.16.169-.268.07-.474-.73-1.524-.579-2.986.483-4.288 1.051-1.29 2.462-1.729 4.057-1.29 1.605.44 2.593 1.544 2.855 3.2.247 1.564-.303 2.861-1.587 3.781-1.279.917-2.669 1.01-4.095.322-.144-.069-.246-.145-.404.014-1.624 1.64-3.259 3.267-4.89 4.9-.035.036-.062.08-.1.13.991 1.423 1.306 2.99.993 4.703l1.552.595c1.055.407 2.111.811 3.164 1.225.159.063.249.044.372-.081.937-.949 2.226-1.168 3.405-.595 1.122.546 1.782 1.731 1.636 2.937z" fill="#FF782D"/>
    </g>
    <defs>
        <clipPath id="2gh2wwjt3a">
            <path fill="#fff" d="M0 0h32v32H0z"/>
        </clipPath>
    </defs>
</svg>
