<svg width="32" height="32" viewBox="0 0 32 32" fill="none" xmlns="http://www.w3.org/2000/svg">
    <path d="M1.664 10.386v.328c0 5.063 0 10.127.002 15.19 0 .25.002.502.043.746.37 2.203 2.109 3.676 4.356 3.68 4.002.007 8.004.002 12.007.002h.336c-.058-.235-.116-.413-.144-.595-.23-1.468-.437-2.939-.686-4.403a3.27 3.27 0 0 1 .267-2.026c1.446-3.059 2.867-6.13 4.3-9.196.953-2.044 3.035-2.805 5.08-1.854 1.012.47 2.017.954 3.016 1.427v-3.3H1.664zm11.573 15.95c-1.091.007-2.181.002-3.272.002H6.663c-.401 0-.704-.181-.89-.528a.949.949 0 0 1 .042-1.007c.2-.315.505-.459.87-.459 2.192-.003 4.383-.007 6.575.001.613.003 1.04.438 1.035 1.01-.005.575-.432.978-1.058.982zm2.939-5.343c-.12.027-.248.025-.371.025-1.507.002-3.012.001-4.518.001-1.527 0-3.054.004-4.58-.002-.718-.002-1.202-.617-1.017-1.274.123-.435.513-.718 1.013-.72 1.235-.003 2.472 0 3.708 0 1.838 0 3.677-.003 5.515.001.55.001.976.375 1.033.886.056.5-.28.973-.783 1.083zm.762-6.086c-.096.407-.355.674-.775.759-.13.027-.267.032-.401.032-1.486.003-2.971.002-4.456.002-1.516 0-3.033.003-4.548-.002-.675-.002-1.117-.43-1.098-1.043a.97.97 0 0 1 .9-.945c.082-.007.165-.007.248-.007 3.001 0 6.003-.005 9.005.01.261.001.559.088.777.23.327.214.44.575.348.964zM30.26 6.066c-.018-.423-.06-.855-.178-1.258-.55-1.894-2.21-3.084-4.268-3.085H6.134c-.125 0-.25.001-.375.006-1.965.076-3.726 1.569-4.003 3.518-.136.949-.068 1.928-.09 2.893-.002.068.017.138.027.216h28.561c.005-.098.013-.196.014-.294.001-.666.021-1.332-.007-1.996zm-22.952.303a1.002 1.002 0 0 1-.994-.99c0-.55.476-1.017 1.022-1.001a.999.999 0 0 1 .97 1.013.98.98 0 0 1-.998.978zm3.345 0a.98.98 0 0 1-1-.975.996.996 0 0 1 .995-1.017c.534.004.994.465.995.999a1 1 0 0 1-.99.993zm3.327 0a.995.995 0 0 1-1.008-.974 1.007 1.007 0 0 1 1.002-1.017c.538.003.992.458.993.996a.995.995 0 0 1-.987.994z" fill="#FF782D"/>
    <path d="m28.508 20.93-.543 1.167c-.776 1.665-1.555 3.329-2.325 4.996-.14.305-.34.533-.628.706-1.273.765-2.538 1.542-3.809 2.311-.795.483-1.524.142-1.667-.78-.232-1.497-.465-2.996-.68-4.497-.03-.215-.01-.47.08-.665.955-2.085 1.93-4.161 2.9-6.24.008-.017.026-.031.066-.077l6.606 3.08zM30.16 17.31c-.21.613-.52 1.193-.797 1.816l-6.648-3.1c.274-.578.507-1.122.785-1.643.55-1.027 1.78-1.49 2.856-1.042.928.386 1.842.812 2.734 1.272.958.495 1.424 1.672 1.07 2.696z" fill="#FF782D"/>
    <path d="M30.267 25.963c-.013 2.224-1.485 3.98-3.683 4.311-.753.113-1.534.045-2.303.057-.248.004-.497 0-.746 0l-.02-.067c.706-.43 1.404-.874 2.12-1.287.574-.329.97-.787 1.245-1.386 1.053-2.292 2.126-4.575 3.192-6.861.041-.09.09-.18.171-.34.013.15.024.227.024.302.002 1.757.01 3.514 0 5.271z" fill="#FF782D"/>
</svg>
